<?xml version="1.0" encoding="UTF-8"?>
<svg xmlns="http://www.w3.org/2000/svg" xmlns:xlink="http://www.w3.org/1999/xlink" width="225px" height="177px" viewBox="0 0 224 177" version="1.1">
<defs>
<filter id="alpha" filterUnits="objectBoundingBox" x="0%" y="0%" width="100%" height="100%">
  <feColorMatrix type="matrix" in="SourceGraphic" values="0 0 0 0 1 0 0 0 0 1 0 0 0 0 1 0 0 0 1 0"/>
</filter>
<mask id="mask0">
  <g filter="url(#alpha)">
<rect x="0" y="0" width="224" height="177" style="fill:rgb(0%,0%,0%);fill-opacity:0.2;stroke:none;"/>
  </g>
</mask>
<clipPath id="clip1">
  <rect x="0" y="0" width="225" height="177"/>
</clipPath>
<g id="surface5" clip-path="url(#clip1)">
<path style=" stroke:none;fill-rule:nonzero;fill:rgb(0%,0%,0%);fill-opacity:1;" d="M 177.421875 164.59375 C 177.28125 166.09375 174.316406 166.148438 172.605469 166.042969 C 171.992188 166.003906 171.390625 165.859375 170.828125 165.617188 C 169.941406 165.25 169.535156 165.648438 169.535156 165.648438 C 167.261719 166.800781 165.003906 165.648438 165.003906 165.648438 C 161.402344 163.730469 161.601562 162 161.601562 162 C 162.046875 159.925781 163.761719 159.667969 164.941406 159.765625 L 165.132812 159.789062 C 165.460938 159.824219 165.789062 159.890625 166.105469 159.984375 C 166.511719 160.113281 166.960938 160.054688 167.320312 159.816406 C 167.378906 159.773438 167.433594 159.726562 167.484375 159.671875 C 168.097656 159.050781 168.09375 157.859375 168.09375 157.859375 C 168.015625 156.847656 168.152344 156.253906 168.351562 155.910156 C 168.71875 155.304688 169.011719 155.5625 169.011719 155.5625 C 169.011719 155.5625 175.722656 161.035156 175.816406 157.578125 C 176.125 157.769531 176.851562 158.492188 177.003906 159.046875 C 177.605469 161.03125 177.421875 164.59375 177.421875 164.59375 Z M 177.421875 164.59375 "/>
</g>
<mask id="mask1">
  <g filter="url(#alpha)">
<rect x="0" y="0" width="224" height="177" style="fill:rgb(0%,0%,0%);fill-opacity:0.2;stroke:none;"/>
  </g>
</mask>
<clipPath id="clip2">
  <rect x="0" y="0" width="225" height="177"/>
</clipPath>
<g id="surface8" clip-path="url(#clip2)">
<path style=" stroke:none;fill-rule:nonzero;fill:rgb(0%,0%,0%);fill-opacity:1;" d="M 177.292969 166.585938 C 177.085938 167.023438 176.636719 167.289062 176.15625 167.265625 L 162.207031 166.894531 C 161.007812 166.796875 161.308594 163.820312 161.308594 163.820312 C 161.308594 161.417969 161.609375 162.003906 161.609375 162.003906 C 161.609375 162.003906 161.402344 163.730469 165.027344 165.648438 C 165.027344 165.648438 167.28125 166.800781 169.554688 165.648438 C 169.554688 165.648438 169.953125 165.25 170.847656 165.617188 C 171.414062 165.859375 172.015625 166.003906 172.628906 166.042969 C 174.335938 166.140625 177.300781 166.09375 177.441406 164.59375 C 177.597656 165.535156 177.480469 166.171875 177.292969 166.585938 Z M 177.292969 166.585938 "/>
</g>
<mask id="mask2">
  <g filter="url(#alpha)">
<rect x="0" y="0" width="224" height="177" style="fill:rgb(0%,0%,0%);fill-opacity:0.2;stroke:none;"/>
  </g>
</mask>
<clipPath id="clip3">
  <rect x="0" y="0" width="225" height="177"/>
</clipPath>
<g id="surface11" clip-path="url(#clip3)">
<path style=" stroke:none;fill-rule:nonzero;fill:rgb(0%,0%,0%);fill-opacity:1;" d="M 176.789062 158.640625 C 174.679688 162.097656 168.367188 155.914062 168.367188 155.914062 C 168.734375 155.308594 169.027344 155.566406 169.027344 155.566406 C 169.027344 155.566406 175.546875 161.042969 175.832031 157.585938 C 176.230469 157.855469 176.558594 158.21875 176.789062 158.640625 Z M 176.789062 158.640625 "/>
</g>
<mask id="mask3">
  <g filter="url(#alpha)">
<rect x="0" y="0" width="224" height="177" style="fill:rgb(0%,0%,0%);fill-opacity:0.2;stroke:none;"/>
  </g>
</mask>
<clipPath id="clip4">
  <rect x="0" y="0" width="225" height="177"/>
</clipPath>
<g id="surface14" clip-path="url(#clip4)">
<path style=" stroke:none;fill-rule:nonzero;fill:rgb(0%,0%,0%);fill-opacity:1;" d="M 162.269531 104.957031 C 161.902344 105.359375 161.902344 105.976562 162.269531 106.378906 C 163.246094 106.8125 164.28125 107.089844 165.34375 107.203125 C 165.34375 107.203125 165.480469 108.800781 162.605469 107.648438 C 162.605469 107.648438 160.496094 105.835938 160.496094 108.703125 C 160.496094 108.703125 160.976562 113.792969 158.003906 121.476562 C 158.003906 121.476562 156.472656 124.738281 157.332031 125.507812 C 157.332031 125.507812 159.636719 127.238281 164.519531 126.949219 C 164.519531 126.949219 163.851562 128.101562 160.785156 128.292969 C 160.785156 128.292969 163.003906 129.496094 169.175781 129.328125 C 161.066406 130.234375 157.09375 128.332031 155.8125 127.515625 C 155.535156 127.335938 155.417969 126.984375 155.53125 126.671875 C 156.664062 123.539062 158.003906 116.097656 158.003906 116.097656 C 158.578125 108.414062 160.59375 106.101562 160.59375 106.101562 C 160.480469 105.023438 160.480469 103.933594 160.59375 102.855469 L 175.351562 102.75 C 175.351562 102.75 173.148438 108.324219 162.269531 104.957031 Z M 162.269531 104.957031 "/>
</g>
<mask id="mask4">
  <g filter="url(#alpha)">
<rect x="0" y="0" width="224" height="177" style="fill:rgb(0%,0%,0%);fill-opacity:0.4;stroke:none;"/>
  </g>
</mask>
<clipPath id="clip5">
  <rect x="0" y="0" width="225" height="177"/>
</clipPath>
<g id="surface17" clip-path="url(#clip5)">
<path style=" stroke:none;fill-rule:nonzero;fill:rgb(100%,100%,100%);fill-opacity:1;" d="M 150.242188 85.085938 L 153.917969 89.957031 L 159.058594 88.472656 L 157.546875 84.046875 L 155.488281 81.65625 Z M 150.242188 85.085938 "/>
</g>
<mask id="mask5">
  <g filter="url(#alpha)">
<rect x="0" y="0" width="224" height="177" style="fill:rgb(0%,0%,0%);fill-opacity:0.501961;stroke:none;"/>
  </g>
</mask>
<clipPath id="clip6">
  <rect x="0" y="0" width="225" height="177"/>
</clipPath>
<g id="surface20" clip-path="url(#clip6)">
<path style=" stroke:none;fill-rule:nonzero;fill:rgb(100%,100%,100%);fill-opacity:1;" d="M 150.242188 85.085938 L 150.242188 86.050781 L 153.761719 90.820312 L 153.917969 89.957031 Z M 150.242188 85.085938 "/>
</g>
<mask id="mask6">
  <g filter="url(#alpha)">
<rect x="0" y="0" width="224" height="177" style="fill:rgb(0%,0%,0%);fill-opacity:0.2;stroke:none;"/>
  </g>
</mask>
<clipPath id="clip7">
  <rect x="0" y="0" width="225" height="177"/>
</clipPath>
<g id="surface23" clip-path="url(#clip7)">
<path style=" stroke:none;fill-rule:nonzero;fill:rgb(0%,0%,0%);fill-opacity:1;" d="M 31.296875 78.554688 C 32.429688 79.773438 33.886719 80.640625 35.5 81.050781 L 35.390625 81.140625 C 35.4375 80.179688 35.789062 79.179688 36.550781 78.546875 C 35.890625 79.289062 35.539062 80.257812 35.570312 81.25 C 33.871094 80.890625 32.355469 79.933594 31.296875 78.554688 Z M 31.296875 78.554688 "/>
</g>
<mask id="mask7">
  <g filter="url(#alpha)">
<rect x="0" y="0" width="224" height="177" style="fill:rgb(0%,0%,0%);fill-opacity:0.2;stroke:none;"/>
  </g>
</mask>
<clipPath id="clip8">
  <rect x="0" y="0" width="225" height="177"/>
</clipPath>
<g id="surface26" clip-path="url(#clip8)">
<path style=" stroke:none;fill-rule:nonzero;fill:rgb(0%,0%,0%);fill-opacity:1;" d="M 39.753906 79.515625 C 40.375 79.550781 41.125 79.558594 41.578125 79.070312 L 41.59375 79.207031 C 41.425781 79.074219 41.277344 78.917969 41.148438 78.75 C 40.882812 78.414062 40.714844 78.015625 40.660156 77.59375 C 40.640625 77.382812 40.652344 77.171875 40.703125 76.96875 C 40.703125 77.023438 40.703125 77.148438 40.703125 77.199219 C 40.722656 77.527344 40.8125 77.84375 40.960938 78.132812 C 41.160156 78.515625 41.4375 78.851562 41.777344 79.121094 L 41.714844 79.191406 C 41.21875 79.726562 40.390625 79.710938 39.746094 79.515625 Z M 39.753906 79.515625 "/>
</g>
<mask id="mask8">
  <g filter="url(#alpha)">
<rect x="0" y="0" width="224" height="177" style="fill:rgb(0%,0%,0%);fill-opacity:0.4;stroke:none;"/>
  </g>
</mask>
<clipPath id="clip9">
  <rect x="0" y="0" width="225" height="177"/>
</clipPath>
<g id="surface29" clip-path="url(#clip9)">
<path style=" stroke:none;fill-rule:nonzero;fill:rgb(100%,100%,100%);fill-opacity:1;" d="M 50.882812 97.640625 L 52.273438 89.972656 L 57.175781 88.445312 L 55.484375 97.640625 Z M 50.882812 97.640625 "/>
</g>
<mask id="mask9">
  <g filter="url(#alpha)">
<rect x="0" y="0" width="224" height="177" style="fill:rgb(0%,0%,0%);fill-opacity:0.501961;stroke:none;"/>
  </g>
</mask>
<clipPath id="clip10">
  <rect x="0" y="0" width="225" height="177"/>
</clipPath>
<g id="surface32" clip-path="url(#clip10)">
<path style=" stroke:none;fill-rule:nonzero;fill:rgb(100%,100%,100%);fill-opacity:1;" d="M 49.714844 97.640625 L 51.425781 89.117188 L 55.929688 87.773438 L 57.175781 88.445312 L 52.273438 89.972656 L 50.882812 97.640625 Z M 49.714844 97.640625 "/>
</g>
<mask id="mask10">
  <g filter="url(#alpha)">
<rect x="0" y="0" width="224" height="177" style="fill:rgb(0%,0%,0%);fill-opacity:0.2;stroke:none;"/>
  </g>
</mask>
<clipPath id="clip11">
  <rect x="0" y="0" width="225" height="177"/>
</clipPath>
<g id="surface35" clip-path="url(#clip11)">
<path style=" stroke:none;fill-rule:nonzero;fill:rgb(0%,0%,0%);fill-opacity:1;" d="M 46.921875 85.46875 C 46.9375 85.90625 46.976562 86.34375 47.042969 86.777344 C 47.214844 88.082031 47.402344 89.386719 47.609375 90.683594 C 47.863281 92.421875 48.207031 94.140625 48.644531 95.839844 C 48.144531 94.15625 47.765625 92.441406 47.511719 90.703125 C 47.308594 89.40625 47.128906 88.097656 46.996094 86.785156 C 46.941406 86.351562 46.914062 85.914062 46.917969 85.472656 Z M 46.921875 85.46875 "/>
</g>
<mask id="mask11">
  <g filter="url(#alpha)">
<rect x="0" y="0" width="224" height="177" style="fill:rgb(0%,0%,0%);fill-opacity:0.2;stroke:none;"/>
  </g>
</mask>
<clipPath id="clip12">
  <rect x="0" y="0" width="225" height="177"/>
</clipPath>
<g id="surface38" clip-path="url(#clip12)">
<path style=" stroke:none;fill-rule:nonzero;fill:rgb(0%,0%,0%);fill-opacity:1;" d="M 48.933594 86.910156 C 49.144531 88.980469 49.292969 92.609375 48.273438 94.4375 C 48.417969 94.15625 48.527344 93.859375 48.601562 93.554688 C 48.824219 92.628906 48.945312 91.679688 48.96875 90.730469 C 49.027344 89.457031 49 88.1875 48.933594 86.917969 Z M 48.933594 86.910156 "/>
</g>
<mask id="mask12">
  <g filter="url(#alpha)">
<rect x="0" y="0" width="224" height="177" style="fill:rgb(0%,0%,0%);fill-opacity:0.2;stroke:none;"/>
  </g>
</mask>
<clipPath id="clip13">
  <rect x="0" y="0" width="225" height="177"/>
</clipPath>
<g id="surface41" clip-path="url(#clip13)">
<path style=" stroke:none;fill-rule:nonzero;fill:rgb(0%,0%,0%);fill-opacity:1;" d="M 32.589844 126.574219 C 32.894531 127.789062 32.78125 129.074219 32.269531 130.214844 C 32.269531 130.214844 31.378906 131.644531 31.867188 132.546875 C 32.089844 132.9375 32.175781 133.386719 32.109375 133.832031 C 32.003906 134.449219 31.726562 135.027344 31.308594 135.496094 C 31.046875 135.851562 30.976562 136.308594 31.121094 136.726562 C 31.183594 136.925781 31.28125 137.109375 31.414062 137.269531 C 31.644531 137.566406 32.0625 138.589844 30.449219 141.355469 C 29.695312 139.082031 30.351562 135.015625 30.351562 135.015625 L 31.171875 105.492188 L 33.4375 105.414062 L 33.464844 105.414062 C 33.464844 105.414062 31.308594 113.316406 31.789062 121.382812 C 31.777344 121.382812 32.136719 125.140625 32.589844 126.574219 Z M 32.589844 126.574219 "/>
</g>
<mask id="mask13">
  <g filter="url(#alpha)">
<rect x="0" y="0" width="224" height="177" style="fill:rgb(0%,0%,0%);fill-opacity:0.2;stroke:none;"/>
  </g>
</mask>
<clipPath id="clip14">
  <rect x="0" y="0" width="225" height="177"/>
</clipPath>
<g id="surface44" clip-path="url(#clip14)">
<path style=" stroke:none;fill-rule:nonzero;fill:rgb(0%,0%,0%);fill-opacity:1;" d="M 51.332031 142.214844 L 51.332031 159.894531 C 50.085938 159.609375 47.6875 160.570312 47.6875 160.570312 C 45.839844 160.417969 43.984375 160.648438 42.226562 161.242188 C 41.464844 160.25 39.078125 160.226562 38.125 160.257812 C 38.402344 160.226562 39.722656 159.84375 39.636719 155.289062 C 39.636719 155.289062 40.597656 143.1875 40.210938 138.960938 C 40.210938 138.960938 39.988281 138.152344 40.253906 136.347656 C 40.367188 135.628906 40.558594 134.925781 40.828125 134.25 C 41.027344 133.730469 41.253906 132.53125 41.089844 129.648438 L 40.988281 113.25 C 40.988281 113.25 40.597656 110.140625 42.800781 109.667969 L 42.226562 152.589844 C 42.226562 152.589844 41.085938 160.625 43.378906 160.253906 L 48.261719 159.3125 C 48.261719 159.3125 50.753906 159.695312 50.46875 156.722656 C 50.46875 156.722656 50.007812 144.320312 51.242188 139.527344 Z M 51.332031 142.214844 "/>
</g>
<mask id="mask14">
  <g filter="url(#alpha)">
<rect x="0" y="0" width="224" height="177" style="fill:rgb(0%,0%,0%);fill-opacity:0.2;stroke:none;"/>
  </g>
</mask>
<clipPath id="clip15">
  <rect x="0" y="0" width="225" height="177"/>
</clipPath>
<g id="surface47" clip-path="url(#clip15)">
<path style=" stroke:none;fill-rule:nonzero;fill:rgb(0%,0%,0%);fill-opacity:1;" d="M 42.226562 164.976562 L 35.035156 164.785156 C 30.628906 164.300781 30.617188 161.96875 30.617188 161.96875 C 30.617188 161.96875 32.59375 164.820312 36.433594 163.785156 C 36.523438 163.757812 36.609375 163.722656 36.691406 163.683594 L 36.804688 163.628906 C 37.441406 163.316406 38.058594 162.972656 38.652344 162.589844 C 39.953125 161.730469 41.640625 161.742188 42.925781 162.621094 C 43.714844 164.707031 42.226562 164.976562 42.226562 164.976562 Z M 42.226562 164.976562 "/>
</g>
<mask id="mask15">
  <g filter="url(#alpha)">
<rect x="0" y="0" width="224" height="177" style="fill:rgb(0%,0%,0%);fill-opacity:0.2;stroke:none;"/>
  </g>
</mask>
<clipPath id="clip16">
  <rect x="0" y="0" width="225" height="177"/>
</clipPath>
<g id="surface50" clip-path="url(#clip16)">
<path style=" stroke:none;fill-rule:nonzero;fill:rgb(0%,0%,0%);fill-opacity:1;" d="M 55.335938 163.328125 C 55.363281 163.628906 55.265625 163.925781 55.058594 164.148438 C 54.855469 164.371094 54.570312 164.5 54.265625 164.5 L 47.976562 164.5 C 44.902344 164.5 43.667969 163.011719 43.179688 161.984375 C 43.242188 162.039062 45.945312 164.351562 50.421875 162.609375 C 53.082031 161.574219 54.394531 161.757812 55.023438 162.089844 C 55.191406 162.484375 55.296875 162.902344 55.335938 163.328125 Z M 55.335938 163.328125 "/>
</g>
<mask id="mask16">
  <g filter="url(#alpha)">
<rect x="0" y="0" width="224" height="177" style="fill:rgb(0%,0%,0%);fill-opacity:0.2;stroke:none;"/>
  </g>
</mask>
<clipPath id="clip17">
  <rect x="0" y="0" width="225" height="177"/>
</clipPath>
<g id="surface53" clip-path="url(#clip17)">
<path style=" stroke:none;fill-rule:nonzero;fill:rgb(0%,0%,0%);fill-opacity:1;" d="M 175.355469 102.753906 C 174.105469 105.636719 163.945312 104.867188 163.945312 104.867188 C 160.878906 104.289062 159.730469 101.496094 159.730469 101.496094 C 156.796875 101.03125 155.730469 98.644531 155.425781 97.722656 C 155.355469 97.511719 155.324219 97.289062 155.339844 97.066406 L 155.371094 96.621094 C 155.714844 97.34375 158.746094 103.488281 159.921875 98.328125 L 160.699219 88.464844 C 160.660156 89.179688 160.011719 102.582031 162.902344 103.609375 C 162.890625 103.617188 168.648438 105.636719 175.355469 102.753906 Z M 175.355469 102.753906 "/>
</g>
<mask id="mask17">
  <g filter="url(#alpha)">
<rect x="0" y="0" width="224" height="177" style="fill:rgb(0%,0%,0%);fill-opacity:0.2;stroke:none;"/>
  </g>
</mask>
<clipPath id="clip18">
  <rect x="0" y="0" width="225" height="177"/>
</clipPath>
<g id="surface56" clip-path="url(#clip18)">
<path style=" stroke:none;fill-rule:nonzero;fill:rgb(0%,0%,0%);fill-opacity:1;" d="M 180.339844 95.296875 C 179.65625 97.597656 176.40625 98.625 176.40625 98.625 C 176.40625 98.625 177.269531 90.175781 176.789062 86.910156 C 176.789062 86.910156 178.007812 86.554688 178.261719 92.589844 C 178.382812 93.8125 179.1875 94.863281 180.339844 95.296875 Z M 180.339844 95.296875 "/>
</g>
<mask id="mask18">
  <g filter="url(#alpha)">
<rect x="0" y="0" width="224" height="177" style="fill:rgb(0%,0%,0%);fill-opacity:0.2;stroke:none;"/>
  </g>
</mask>
<clipPath id="clip19">
  <rect x="0" y="0" width="225" height="177"/>
</clipPath>
<g id="surface59" clip-path="url(#clip19)">
<path style=" stroke:none;fill-rule:nonzero;fill:rgb(0%,0%,0%);fill-opacity:1;" d="M 176.40625 128.296875 L 176.40625 139.820312 C 172.859375 141.738281 168.929688 139.859375 168.929688 139.859375 L 168.929688 134.320312 C 168.929688 134.050781 168.710938 133.832031 168.441406 133.832031 L 168.386719 133.832031 C 168.140625 133.859375 167.957031 134.070312 167.957031 134.316406 L 167.957031 135.765625 C 166.503906 131.804688 160.199219 129.121094 160.199219 129.121094 C 162.34375 129.550781 165.289062 129.761719 169.183594 129.328125 C 169.382812 129.304688 169.589844 129.28125 169.796875 129.253906 C 169.792969 129.257812 173.335938 128.59375 176.40625 128.296875 Z M 176.40625 128.296875 "/>
</g>
<mask id="mask19">
  <g filter="url(#alpha)">
<rect x="0" y="0" width="224" height="177" style="fill:rgb(0%,0%,0%);fill-opacity:0.2;stroke:none;"/>
  </g>
</mask>
<clipPath id="clip20">
  <rect x="0" y="0" width="225" height="177"/>
</clipPath>
<g id="surface62" clip-path="url(#clip20)">
<path style=" stroke:none;fill-rule:nonzero;fill:rgb(0%,0%,0%);fill-opacity:1;" d="M 175.832031 157.304688 C 176.121094 161.335938 169.027344 155.574219 169.027344 155.574219 C 176.214844 156.726562 174.914062 140.40625 174.914062 140.40625 C 175.421875 140.238281 175.917969 140.046875 176.40625 139.828125 Z M 175.832031 157.304688 "/>
</g>
<mask id="mask20">
  <g filter="url(#alpha)">
<rect x="0" y="0" width="224" height="177" style="fill:rgb(0%,0%,0%);fill-opacity:0.2;stroke:none;"/>
  </g>
</mask>
<clipPath id="clip21">
  <rect x="0" y="0" width="225" height="177"/>
</clipPath>
<g id="surface65" clip-path="url(#clip21)">
<path style=" stroke:none;fill-rule:nonzero;fill:rgb(0%,0%,0%);fill-opacity:1;" d="M 166.917969 159.917969 C 164.617188 163.789062 158.640625 156.78125 158.640625 156.78125 C 158.804688 156.441406 159.179688 156.257812 159.546875 156.339844 C 159.546875 156.339844 165.585938 161.519531 166.253906 158.738281 C 166.542969 158.925781 166.757812 159.359375 166.917969 159.917969 Z M 166.917969 159.917969 "/>
</g>
<mask id="mask21">
  <g filter="url(#alpha)">
<rect x="0" y="0" width="224" height="177" style="fill:rgb(0%,0%,0%);fill-opacity:0.2;stroke:none;"/>
  </g>
</mask>
<clipPath id="clip22">
  <rect x="0" y="0" width="225" height="177"/>
</clipPath>
<g id="surface68" clip-path="url(#clip22)">
<path style=" stroke:none;fill-rule:nonzero;fill:rgb(0%,0%,0%);fill-opacity:1;" d="M 167.953125 140.71875 L 166.246094 158.734375 C 165.78125 160.671875 162.722656 158.753906 160.898438 157.40625 C 160.941406 157.390625 164.714844 157.871094 165.578125 150.863281 C 165.613281 150.5625 166.09375 141.410156 166.09375 141.410156 L 166.09375 141.394531 C 167.753906 141.296875 167.941406 140.773438 167.953125 140.71875 Z M 167.953125 140.71875 "/>
</g>
<mask id="mask22">
  <g filter="url(#alpha)">
<rect x="0" y="0" width="224" height="177" style="fill:rgb(0%,0%,0%);fill-opacity:0.2;stroke:none;"/>
  </g>
</mask>
<clipPath id="clip23">
  <rect x="0" y="0" width="225" height="177"/>
</clipPath>
<g id="surface71" clip-path="url(#clip23)">
<path style=" stroke:none;fill-rule:nonzero;fill:rgb(0%,0%,0%);fill-opacity:1;" d="M 132.328125 12.101562 L 116.421875 12.101562 L 114.09375 15.078125 L 92.363281 15.078125 L 90.511719 12.101562 L 73.671875 12.101562 C 70.175781 12.101562 67.34375 14.941406 67.34375 18.441406 L 67.34375 127.332031 C 67.34375 130.835938 70.175781 133.671875 73.671875 133.671875 L 132.328125 133.671875 C 135.816406 133.664062 138.640625 130.828125 138.640625 127.332031 L 138.640625 18.441406 C 138.640625 14.945312 135.816406 12.109375 132.328125 12.101562 Z M 136.773438 123.558594 C 136.773438 126.890625 134.074219 129.59375 130.746094 129.59375 L 74.851562 129.59375 C 71.523438 129.59375 68.824219 126.894531 68.820312 123.558594 L 68.820312 19.867188 C 68.824219 16.535156 71.523438 13.832031 74.851562 13.832031 L 90.886719 13.832031 L 92.648438 16.304688 L 113.363281 16.304688 L 115.578125 13.832031 L 130.738281 13.832031 C 134.066406 13.832031 136.761719 16.535156 136.765625 19.867188 Z M 136.773438 123.558594 "/>
</g>
<mask id="mask23">
  <g filter="url(#alpha)">
<rect x="0" y="0" width="224" height="177" style="fill:rgb(0%,0%,0%);fill-opacity:0.2;stroke:none;"/>
  </g>
</mask>
<clipPath id="clip24">
  <rect x="0" y="0" width="225" height="177"/>
</clipPath>
<g id="surface74" clip-path="url(#clip24)">
<path style=" stroke:none;fill-rule:nonzero;fill:rgb(0%,44.313725%,94.901961%);fill-opacity:1;" d="M 130.746094 13.832031 L 115.589844 13.832031 L 113.375 16.304688 L 92.660156 16.304688 L 90.898438 13.832031 L 74.863281 13.832031 C 71.53125 13.832031 68.832031 16.535156 68.832031 19.867188 L 68.832031 123.558594 C 68.832031 126.894531 71.53125 129.59375 74.863281 129.59375 L 130.757812 129.59375 C 134.085938 129.59375 136.785156 126.890625 136.785156 123.558594 L 136.785156 19.867188 C 136.785156 18.265625 136.148438 16.730469 135.015625 15.597656 C 133.882812 14.464844 132.347656 13.832031 130.746094 13.832031 Z M 130.746094 13.832031 "/>
</g>
<mask id="mask24">
  <g filter="url(#alpha)">
<rect x="0" y="0" width="224" height="177" style="fill:rgb(0%,0%,0%);fill-opacity:0.301961;stroke:none;"/>
  </g>
</mask>
<clipPath id="clip25">
  <rect x="0" y="0" width="225" height="177"/>
</clipPath>
<g id="surface77" clip-path="url(#clip25)">
<path style=" stroke:none;fill-rule:nonzero;fill:rgb(0%,0%,0%);fill-opacity:1;" d="M 42.644531 36.066406 L 66.339844 36.066406 C 67.609375 36.0625 68.828125 36.566406 69.726562 37.464844 C 70.625 38.363281 71.132812 39.582031 71.132812 40.855469 L 71.132812 51.421875 C 71.132812 54.066406 68.992188 56.210938 66.351562 56.210938 L 64.539062 56.210938 C 65.058594 58.703125 66.902344 60.453125 66.902344 60.453125 C 63.476562 59.851562 60.988281 57.839844 59.476562 56.210938 L 42.664062 56.210938 C 40.023438 56.210938 37.882812 54.066406 37.882812 51.421875 L 37.882812 40.855469 C 37.882812 38.21875 40.011719 36.074219 42.644531 36.066406 Z M 42.644531 36.066406 "/>
</g>
<mask id="mask25">
  <g filter="url(#alpha)">
<rect x="0" y="0" width="224" height="177" style="fill:rgb(0%,0%,0%);fill-opacity:0.2;stroke:none;"/>
  </g>
</mask>
<clipPath id="clip26">
  <rect x="0" y="0" width="225" height="177"/>
</clipPath>
<g id="surface80" clip-path="url(#clip26)">
<path style=" stroke:none;fill-rule:nonzero;fill:rgb(0%,0%,0%);fill-opacity:1;" d="M 175.769531 83.320312 C 175.390625 84.082031 174.476562 84.945312 172.191406 84.894531 C 171.726562 84.875 171.273438 85.015625 170.898438 85.285156 C 170.566406 85.523438 170.199219 85.699219 169.808594 85.804688 C 168.675781 86.109375 166.566406 86.40625 165.601562 84.855469 C 165.601562 84.855469 164.261719 82.730469 166.503906 79.488281 C 166.984375 78.136719 167.289062 76.726562 167.402344 75.292969 L 167.402344 72.59375 C 167.402344 72.59375 166.25 72.503906 167.019531 70.585938 C 167.414062 69.765625 167.199219 68.78125 166.503906 68.199219 C 166.503906 68.199219 163.894531 65.691406 163.539062 63.433594 C 163.539062 63.433594 166.347656 61.558594 169.703125 65.589844 C 169.753906 65.097656 169.753906 64.601562 169.703125 64.109375 C 169.703125 64.109375 171.332031 64.535156 171.140625 66.457031 C 171.96875 66.644531 172.632812 67.269531 172.867188 68.089844 C 172.867188 68.089844 171.910156 67.992188 172.484375 68.664062 C 172.484375 68.664062 175.261719 69.722656 172.867188 71.355469 C 172.867188 71.355469 170.722656 72.757812 171.785156 74.464844 C 171.9375 74.699219 172.132812 74.898438 172.363281 75.058594 C 173.085938 75.574219 175.183594 77.351562 174.128906 80.210938 C 174.121094 80.21875 173.023438 82.410156 175.769531 83.320312 Z M 175.769531 83.320312 "/>
</g>
<mask id="mask26">
  <g filter="url(#alpha)">
<rect x="0" y="0" width="224" height="177" style="fill:rgb(0%,0%,0%);fill-opacity:0.501961;stroke:none;"/>
  </g>
</mask>
<clipPath id="clip27">
  <rect x="0" y="0" width="225" height="177"/>
</clipPath>
<g id="surface83" clip-path="url(#clip27)">
<path style=" stroke:none;fill-rule:nonzero;fill:rgb(100%,100%,100%);fill-opacity:1;" d="M 105.59375 22.414062 C 106.273438 22.117188 106.707031 21.441406 106.695312 20.699219 C 106.726562 19.75 105.996094 18.953125 105.050781 18.902344 C 104.105469 18.855469 103.292969 19.574219 103.230469 20.519531 C 103.230469 20.578125 103.230469 20.636719 103.230469 20.699219 C 103.210938 21.445312 103.648438 22.128906 104.332031 22.425781 C 101.652344 22.832031 101.78125 25.738281 101.78125 25.738281 L 108.09375 25.765625 C 108.09375 25.765625 108.242188 22.804688 105.59375 22.414062 Z M 105.59375 22.414062 "/>
</g>
<mask id="mask27">
  <g filter="url(#alpha)">
<rect x="0" y="0" width="224" height="177" style="fill:rgb(0%,0%,0%);fill-opacity:0.301961;stroke:none;"/>
  </g>
</mask>
<clipPath id="clip28">
  <rect x="0" y="0" width="225" height="177"/>
</clipPath>
<g id="surface86" clip-path="url(#clip28)">
<path style=" stroke:none;fill-rule:nonzero;fill:rgb(100%,100%,100%);fill-opacity:1;" d="M 94.339844 28.992188 L 94.339844 26.882812 L 111.308594 26.882812 L 111.308594 28.992188 Z M 94.339844 28.992188 "/>
</g>
<mask id="mask28">
  <g filter="url(#alpha)">
<rect x="0" y="0" width="224" height="177" style="fill:rgb(0%,0%,0%);fill-opacity:0.301961;stroke:none;"/>
  </g>
</mask>
<clipPath id="clip29">
  <rect x="0" y="0" width="225" height="177"/>
</clipPath>
<g id="surface89" clip-path="url(#clip29)">
<path style=" stroke:none;fill-rule:nonzero;fill:rgb(0%,0%,0%);fill-opacity:1;" d="M 78.011719 93.4375 L 62.988281 93.4375 C 61.3125 93.4375 59.957031 94.800781 59.957031 96.476562 L 59.957031 103.171875 C 59.957031 104.847656 61.3125 106.207031 62.988281 106.210938 L 64.148438 106.210938 C 63.898438 107.226562 63.382812 108.152344 62.648438 108.898438 C 64.824219 108.519531 66.398438 107.246094 67.359375 106.210938 L 78.011719 106.210938 C 79.683594 106.207031 81.039062 104.847656 81.039062 103.171875 L 81.039062 96.476562 C 81.042969 94.800781 79.6875 93.4375 78.011719 93.4375 Z M 78.011719 93.4375 "/>
</g>
<mask id="mask29">
  <g filter="url(#alpha)">
<rect x="0" y="0" width="224" height="177" style="fill:rgb(0%,0%,0%);fill-opacity:0.501961;stroke:none;"/>
  </g>
</mask>
<clipPath id="clip30">
  <rect x="0" y="0" width="225" height="177"/>
</clipPath>
<g id="surface92" clip-path="url(#clip30)">
<path style=" stroke:none;fill-rule:nonzero;fill:rgb(100%,100%,100%);fill-opacity:1;" d="M 152.695312 13.121094 C 152.695312 14.628906 151.472656 15.851562 149.96875 15.851562 C 148.464844 15.851562 147.242188 14.628906 147.242188 13.121094 C 147.242188 11.613281 148.464844 10.390625 149.96875 10.390625 C 151.472656 10.390625 152.695312 11.613281 152.695312 13.121094 Z M 152.695312 13.121094 "/>
</g>
<mask id="mask30">
  <g filter="url(#alpha)">
<rect x="0" y="0" width="224" height="177" style="fill:rgb(0%,0%,0%);fill-opacity:0.501961;stroke:none;"/>
  </g>
</mask>
<clipPath id="clip31">
  <rect x="0" y="0" width="225" height="177"/>
</clipPath>
<g id="surface95" clip-path="url(#clip31)">
<path style=" stroke:none;fill-rule:nonzero;fill:rgb(100%,100%,100%);fill-opacity:1;" d="M 59.433594 77.644531 C 59.367188 79.765625 57.601562 81.429688 55.484375 81.363281 C 53.367188 81.300781 51.707031 79.53125 51.769531 77.410156 C 51.832031 75.289062 53.601562 73.625 55.714844 73.6875 C 56.734375 73.714844 57.695312 74.148438 58.394531 74.890625 C 59.089844 75.636719 59.464844 76.625 59.433594 77.644531 Z M 59.433594 77.644531 "/>
</g>
</defs>
<g id="surface1">
<path style=" stroke:none;fill-rule:nonzero;fill:rgb(0%,44.313725%,94.901961%);fill-opacity:1;" d="M 177.421875 164.59375 C 177.277344 166.09375 174.316406 166.148438 172.605469 166.042969 C 171.992188 166.003906 171.390625 165.859375 170.828125 165.617188 C 169.941406 165.25 169.535156 165.648438 169.535156 165.648438 C 167.261719 166.800781 165.003906 165.648438 165.003906 165.648438 C 161.402344 163.730469 161.601562 162 161.601562 162 C 162.300781 158.734375 166.105469 159.984375 166.105469 159.984375 C 168.105469 160.464844 168.09375 157.863281 168.09375 157.863281 C 168.015625 156.855469 168.152344 156.261719 168.351562 155.914062 C 168.71875 155.308594 169.011719 155.566406 169.011719 155.566406 C 169.011719 155.566406 175.722656 161.042969 175.816406 157.585938 C 176.125 157.773438 176.851562 158.492188 177.003906 159.054688 C 177.605469 161.03125 177.421875 164.59375 177.421875 164.59375 Z M 177.421875 164.59375 "/>
<use xlink:href="#surface5" mask="url(#mask0)"/>
<path style=" stroke:none;fill-rule:nonzero;fill:rgb(18.431373%,18.039216%,25.490196%);fill-opacity:1;" d="M 177.292969 166.585938 C 177.085938 167.023438 176.636719 167.289062 176.15625 167.265625 L 162.207031 166.894531 C 161.007812 166.796875 161.308594 163.820312 161.308594 163.820312 C 161.308594 161.417969 161.609375 162.003906 161.609375 162.003906 C 161.609375 162.003906 161.402344 163.730469 165.027344 165.648438 C 165.027344 165.648438 167.28125 166.800781 169.554688 165.648438 C 169.554688 165.648438 169.953125 165.25 170.847656 165.617188 C 171.414062 165.859375 172.015625 166.003906 172.628906 166.042969 C 174.335938 166.140625 177.300781 166.09375 177.441406 164.59375 C 177.597656 165.535156 177.480469 166.171875 177.292969 166.585938 Z M 177.292969 166.585938 "/>
<use xlink:href="#surface8" mask="url(#mask1)"/>
<path style=" stroke:none;fill-rule:nonzero;fill:rgb(100%,100%,100%);fill-opacity:1;" d="M 166.703125 162.414062 C 166.691406 162.453125 166.65625 162.480469 166.613281 162.480469 L 166.582031 162.480469 C 165.21875 162.019531 164.976562 160.558594 164.949219 159.773438 L 165.140625 159.792969 C 165.171875 160.539062 165.402344 161.867188 166.644531 162.296875 C 166.691406 162.316406 166.714844 162.367188 166.703125 162.414062 Z M 166.703125 162.414062 "/>
<path style=" stroke:none;fill-rule:nonzero;fill:rgb(100%,100%,100%);fill-opacity:1;" d="M 169.207031 161.96875 C 169.195312 162.007812 169.160156 162.039062 169.117188 162.035156 L 169.089844 162.035156 C 167.859375 161.644531 167.457031 160.511719 167.328125 159.824219 C 167.386719 159.78125 167.441406 159.730469 167.492188 159.679688 C 167.59375 160.304688 167.941406 161.464844 169.144531 161.855469 C 169.195312 161.871094 169.222656 161.921875 169.207031 161.96875 Z M 169.207031 161.96875 "/>
<use xlink:href="#surface11" mask="url(#mask2)"/>
<path style=" stroke:none;fill-rule:nonzero;fill:rgb(0%,44.313725%,94.901961%);fill-opacity:1;" d="M 178.992188 128.160156 C 178.253906 128.160156 177.355469 128.210938 176.40625 128.296875 C 173.335938 128.59375 169.792969 129.257812 169.792969 129.257812 C 169.585938 129.28125 169.382812 129.308594 169.179688 129.328125 C 165.300781 129.765625 162.34375 129.550781 160.195312 129.121094 C 157.867188 128.65625 156.480469 127.941406 155.816406 127.519531 C 155.535156 127.339844 155.417969 126.992188 155.53125 126.679688 C 156.664062 123.539062 158.007812 116.101562 158.007812 116.101562 C 158.582031 108.417969 160.59375 106.105469 160.59375 106.105469 C 160.480469 105.027344 160.480469 103.9375 160.59375 102.859375 L 175.355469 102.753906 L 175.355469 107.027344 C 176.9375 110.839844 179.097656 124.015625 179.632812 127.394531 C 179.667969 127.585938 179.617188 127.78125 179.492188 127.929688 C 179.371094 128.078125 179.1875 128.160156 178.992188 128.160156 Z M 178.992188 128.160156 "/>
<use xlink:href="#surface14" mask="url(#mask3)"/>
<path style=" stroke:none;fill-rule:nonzero;fill:rgb(0%,44.313725%,94.901961%);fill-opacity:1;" d="M 150.242188 85.085938 L 153.917969 89.957031 L 159.058594 88.472656 L 157.546875 84.046875 L 155.488281 81.65625 Z M 150.242188 85.085938 "/>
<use xlink:href="#surface17" mask="url(#mask4)"/>
<path style=" stroke:none;fill-rule:nonzero;fill:rgb(100%,100%,100%);fill-opacity:1;" d="M 151.296875 85.277344 L 154.148438 89.039062 L 158.074219 87.226562 L 157.011719 84.894531 L 155.335938 82.789062 Z M 151.296875 85.277344 "/>
<path style=" stroke:none;fill-rule:nonzero;fill:rgb(0%,44.313725%,94.901961%);fill-opacity:1;" d="M 150.242188 85.085938 L 150.242188 86.050781 L 153.761719 90.820312 L 153.917969 89.957031 Z M 150.242188 85.085938 "/>
<use xlink:href="#surface20" mask="url(#mask5)"/>
<path style=" stroke:none;fill-rule:nonzero;fill:rgb(0%,44.313725%,94.901961%);fill-opacity:1;" d="M 32.414062 77.078125 C 31.4375 77.339844 30.570312 77.902344 29.933594 78.6875 C 29.640625 79.054688 29.273438 79.359375 28.855469 79.578125 C 27.4375 80.355469 24.421875 82.375 24.496094 85.753906 C 24.496094 85.753906 23.355469 93.644531 25.511719 99.375 C 25.582031 99.558594 25.734375 99.695312 25.921875 99.75 C 26.109375 99.804688 26.3125 99.765625 26.46875 99.644531 C 27.597656 98.765625 28.878906 98.09375 30.246094 97.664062 L 30.246094 105.105469 C 30.246094 105.214844 30.292969 105.324219 30.371094 105.402344 C 30.453125 105.480469 30.566406 105.523438 30.675781 105.515625 C 33.460938 105.375 48.785156 104.542969 50.078125 103.234375 L 49.597656 98.722656 L 54.535156 91.308594 C 54.535156 91.308594 50.269531 85.660156 49.019531 81.4375 C 49.019531 81.4375 47.105469 76.824219 41.164062 76.441406 C 41.171875 76.449219 37.644531 75.699219 32.414062 77.078125 Z M 32.414062 77.078125 "/>
<use xlink:href="#surface23" mask="url(#mask6)"/>
<use xlink:href="#surface26" mask="url(#mask7)"/>
<path style=" stroke:none;fill-rule:nonzero;fill:rgb(0%,44.313725%,94.901961%);fill-opacity:1;" d="M 50.882812 97.640625 L 52.273438 89.972656 L 57.175781 88.445312 L 55.484375 97.640625 Z M 50.882812 97.640625 "/>
<use xlink:href="#surface29" mask="url(#mask8)"/>
<path style=" stroke:none;fill-rule:nonzero;fill:rgb(0%,44.313725%,94.901961%);fill-opacity:1;" d="M 49.714844 97.640625 L 51.425781 89.117188 L 55.929688 87.773438 L 57.175781 88.445312 L 52.273438 89.972656 L 50.882812 97.640625 Z M 49.714844 97.640625 "/>
<use xlink:href="#surface32" mask="url(#mask9)"/>
<path style=" stroke:none;fill-rule:nonzero;fill:rgb(96.862745%,64.313725%,54.509804%);fill-opacity:1;" d="M 49.828125 100.808594 L 49.941406 101.871094 C 51.195312 102.371094 52.566406 102.480469 53.882812 102.1875 C 54.949219 101.949219 55.878906 101.296875 56.472656 100.375 C 57.089844 99.457031 57.121094 98.265625 56.546875 97.320312 L 49.625 98.898438 Z M 49.828125 100.808594 "/>
<use xlink:href="#surface35" mask="url(#mask10)"/>
<use xlink:href="#surface38" mask="url(#mask11)"/>
<path style=" stroke:none;fill-rule:nonzero;fill:rgb(18.431373%,18.039216%,25.490196%);fill-opacity:1;" d="M 51.332031 142.214844 L 51.332031 159.894531 C 50.085938 159.609375 47.6875 160.570312 47.6875 160.570312 C 45.839844 160.417969 43.984375 160.648438 42.226562 161.242188 C 41.464844 160.25 39.078125 160.226562 38.125 160.257812 L 38.070312 160.257812 C 37.851562 160.257812 37.71875 160.277344 37.71875 160.277344 C 36.6875 160.488281 35.691406 160.660156 34.90625 160.796875 C 33.871094 160.964844 32.859375 161.253906 31.890625 161.648438 C 30.738281 162.113281 30.617188 161.980469 30.617188 161.980469 C 28.882812 160.21875 30.75 142.0625 30.75 142.0625 C 30.621094 141.84375 30.515625 141.609375 30.4375 141.367188 C 29.6875 139.097656 30.339844 135.03125 30.339844 135.03125 L 31.160156 105.503906 C 31.9375 105.484375 32.683594 105.457031 33.425781 105.425781 L 33.453125 105.425781 C 38.679688 105.191406 43.890625 104.613281 49.042969 103.699219 C 49.816406 110.972656 50.753906 124.371094 50.753906 124.371094 L 51.242188 139.535156 Z M 51.332031 142.214844 "/>
<use xlink:href="#surface41" mask="url(#mask12)"/>
<use xlink:href="#surface44" mask="url(#mask13)"/>
<path style=" stroke:none;fill-rule:nonzero;fill:rgb(0%,44.313725%,94.901961%);fill-opacity:1;" d="M 42.226562 164.976562 L 35.035156 164.785156 C 30.628906 164.300781 30.617188 161.96875 30.617188 161.96875 C 30.875 161.996094 31.460938 161.800781 32.003906 161.582031 C 32.925781 161.207031 33.886719 160.929688 34.871094 160.761719 L 37.714844 160.273438 L 38.117188 160.253906 C 41.480469 160.136719 42.222656 161.234375 42.222656 161.234375 C 42.5 161.671875 42.738281 162.132812 42.925781 162.613281 C 43.714844 164.707031 42.226562 164.976562 42.226562 164.976562 Z M 42.226562 164.976562 "/>
<use xlink:href="#surface47" mask="url(#mask14)"/>
<path style=" stroke:none;fill-rule:nonzero;fill:rgb(0%,44.313725%,94.901961%);fill-opacity:1;" d="M 55.335938 163.328125 C 55.363281 163.628906 55.265625 163.925781 55.058594 164.148438 C 54.855469 164.371094 54.570312 164.5 54.265625 164.5 L 47.976562 164.5 C 44.902344 164.5 43.667969 163.011719 43.179688 161.984375 C 43.03125 161.683594 42.925781 161.359375 42.871094 161.027344 C 44.863281 160.058594 47.6875 160.5625 47.6875 160.5625 C 50.238281 159.550781 51.332031 159.886719 51.332031 159.886719 C 53.574219 160.023438 54.585938 161.042969 55.03125 162.085938 C 55.199219 162.480469 55.300781 162.898438 55.335938 163.328125 Z M 55.335938 163.328125 "/>
<use xlink:href="#surface50" mask="url(#mask15)"/>
<path style=" stroke:none;fill-rule:nonzero;fill:rgb(97.647059%,70.588235%,60%);fill-opacity:1;" d="M 163.1875 77.410156 L 163.1875 80.21875 L 167.011719 80.21875 L 168.003906 74.914062 C 168.003906 74.914062 167.40625 75.53125 166.824219 75.269531 Z M 163.1875 77.410156 "/>
<path style=" stroke:none;fill-rule:nonzero;fill:rgb(96.862745%,64.313725%,54.509804%);fill-opacity:1;" d="M 163.1875 77.410156 L 163.1875 80.21875 L 165.699219 80.21875 C 165.699219 80.21875 166.734375 78.292969 166.445312 76.121094 C 166.445312 76.121094 165.109375 77.703125 163.1875 77.410156 Z M 163.1875 77.410156 "/>
<path style=" stroke:none;fill-rule:nonzero;fill:rgb(0%,44.313725%,94.901961%);fill-opacity:1;" d="M 180.429688 94.878906 C 180.410156 95.019531 180.378906 95.160156 180.339844 95.296875 C 179.65625 97.597656 176.40625 98.625 176.40625 98.625 C 176.023438 102.464844 175.355469 102.753906 175.355469 102.753906 C 174.105469 105.636719 163.945312 104.867188 163.945312 104.867188 C 160.878906 104.289062 159.730469 101.496094 159.730469 101.496094 C 156.796875 101.03125 155.730469 98.644531 155.425781 97.722656 C 155.355469 97.511719 155.324219 97.289062 155.339844 97.066406 L 155.371094 96.621094 L 155.800781 89.972656 C 156.089844 82.292969 160.976562 81.8125 160.976562 81.8125 C 161.359375 80.179688 163.1875 80.210938 163.1875 80.210938 L 167.011719 80.210938 L 175.957031 82.777344 C 177.019531 83.078125 177.84375 83.914062 178.132812 84.980469 C 179.570312 88.351562 180.429688 94.878906 180.429688 94.878906 Z M 180.429688 94.878906 "/>
<use xlink:href="#surface53" mask="url(#mask16)"/>
<use xlink:href="#surface56" mask="url(#mask17)"/>
<path style=" stroke:none;fill-rule:nonzero;fill:rgb(18.431373%,18.039216%,25.490196%);fill-opacity:1;" d="M 176.40625 128.296875 L 176.40625 139.820312 C 172.859375 141.738281 168.929688 139.859375 168.929688 139.859375 L 168.929688 134.320312 C 168.929688 134.050781 168.710938 133.832031 168.441406 133.832031 L 168.386719 133.832031 C 168.140625 133.859375 167.957031 134.070312 167.957031 134.316406 L 167.957031 140.71875 C 166.980469 142.273438 160.199219 140.71875 160.199219 140.71875 L 160.199219 129.121094 C 162.34375 129.550781 165.289062 129.765625 169.183594 129.328125 C 169.382812 129.308594 169.589844 129.28125 169.796875 129.257812 C 169.792969 129.257812 173.335938 128.59375 176.40625 128.296875 Z M 176.40625 128.296875 "/>
<use xlink:href="#surface59" mask="url(#mask18)"/>
<path style=" stroke:none;fill-rule:nonzero;fill:rgb(80%,80%,80%);fill-opacity:1;" d="M 167.953125 140.71875 L 166.246094 158.734375 C 165.78125 160.671875 162.722656 158.753906 160.898438 157.40625 C 160.097656 156.816406 159.539062 156.335938 159.539062 156.335938 L 160.195312 140.71875 C 163.121094 141.332031 164.949219 141.464844 166.082031 141.402344 C 167.753906 141.296875 167.941406 140.773438 167.953125 140.71875 Z M 167.953125 140.71875 "/>
<path style=" stroke:none;fill-rule:nonzero;fill:rgb(80%,80%,80%);fill-opacity:1;" d="M 175.832031 157.304688 C 176.121094 161.335938 169.027344 155.574219 169.027344 155.574219 L 168.929688 139.867188 C 170.804688 140.722656 172.917969 140.914062 174.914062 140.40625 C 175.433594 140.277344 175.933594 140.082031 176.40625 139.828125 Z M 175.832031 157.304688 "/>
<use xlink:href="#surface62" mask="url(#mask19)"/>
<path style=" stroke:none;fill-rule:nonzero;fill:rgb(0%,44.313725%,94.901961%);fill-opacity:1;" d="M 167.300781 165.457031 C 167.164062 166.957031 164.328125 167.011719 162.691406 166.90625 C 162.101562 166.863281 161.523438 166.722656 160.984375 166.480469 C 160.136719 166.113281 159.757812 166.515625 159.757812 166.515625 C 157.578125 167.667969 155.417969 166.515625 155.417969 166.515625 C 151.964844 164.59375 152.15625 162.867188 152.15625 162.867188 C 152.582031 160.792969 154.203125 160.535156 155.332031 160.628906 L 155.515625 160.648438 C 155.839844 160.683594 156.160156 160.75 156.472656 160.851562 C 156.863281 160.976562 157.289062 160.917969 157.628906 160.6875 C 157.6875 160.640625 157.738281 160.59375 157.789062 160.542969 C 158.378906 159.917969 158.375 158.726562 158.375 158.726562 C 158.300781 157.714844 158.433594 157.125 158.632812 156.777344 C 158.796875 156.4375 159.171875 156.253906 159.542969 156.335938 C 159.542969 156.335938 165.578125 161.519531 166.25 158.738281 C 166.542969 158.925781 166.765625 159.359375 166.917969 159.917969 C 167.476562 161.898438 167.300781 165.457031 167.300781 165.457031 Z M 167.300781 165.457031 "/>
<path style=" stroke:none;fill-rule:nonzero;fill:rgb(18.431373%,18.039216%,25.490196%);fill-opacity:1;" d="M 167.175781 167.449219 C 166.988281 167.878906 166.558594 168.148438 166.089844 168.132812 L 152.734375 167.765625 C 151.582031 167.664062 151.871094 164.691406 151.871094 164.691406 C 151.871094 162.289062 152.15625 162.875 152.15625 162.875 C 152.15625 162.875 151.964844 164.605469 155.417969 166.523438 C 155.417969 166.523438 157.578125 167.675781 159.757812 166.523438 C 159.757812 166.523438 160.136719 166.125 160.984375 166.492188 C 161.523438 166.730469 162.101562 166.875 162.691406 166.917969 C 164.328125 167.015625 167.164062 166.96875 167.300781 165.46875 C 167.472656 166.398438 167.351562 167.035156 167.175781 167.449219 Z M 167.175781 167.449219 "/>
<path style=" stroke:none;fill-rule:nonzero;fill:rgb(100%,100%,100%);fill-opacity:1;" d="M 157.039062 163.277344 C 157.027344 163.316406 156.992188 163.347656 156.949219 163.34375 L 156.921875 163.34375 C 155.46875 162.882812 155.308594 161.425781 155.332031 160.632812 L 155.515625 160.652344 C 155.488281 161.394531 155.636719 162.726562 156.980469 163.164062 C 157.027344 163.179688 157.054688 163.230469 157.039062 163.277344 Z M 157.039062 163.277344 "/>
<path style=" stroke:none;fill-rule:nonzero;fill:rgb(100%,100%,100%);fill-opacity:1;" d="M 159.4375 162.84375 C 159.425781 162.867188 159.410156 162.886719 159.386719 162.894531 C 159.359375 162.90625 159.335938 162.902344 159.3125 162.890625 C 158.402344 162.503906 157.765625 161.667969 157.628906 160.6875 C 157.6875 160.640625 157.738281 160.59375 157.789062 160.542969 C 157.886719 161.503906 158.496094 162.335938 159.386719 162.714844 C 159.410156 162.726562 159.429688 162.746094 159.4375 162.769531 C 159.445312 162.792969 159.445312 162.820312 159.4375 162.84375 Z M 159.4375 162.84375 "/>
<use xlink:href="#surface65" mask="url(#mask20)"/>
<use xlink:href="#surface68" mask="url(#mask21)"/>
<path style=" stroke:none;fill-rule:nonzero;fill:rgb(97.647059%,70.588235%,60%);fill-opacity:1;" d="M 178.871094 97.296875 C 178.871094 97.296875 179.1875 103.847656 175.355469 106.085938 L 175.355469 102.753906 C 175.355469 102.753906 176.128906 102.273438 176.40625 98.625 C 176.40625 98.625 177.40625 98.476562 178.871094 97.296875 Z M 178.871094 97.296875 "/>
<path style=" stroke:none;fill-rule:nonzero;fill:rgb(97.647059%,70.588235%,60%);fill-opacity:1;" d="M 160.339844 102.53125 C 160.339844 102.53125 157.910156 107.363281 154.554688 103.519531 C 154.554688 103.519531 150.53125 100.257812 153.691406 91.339844 C 153.691406 91.339844 154.273438 85.984375 156.089844 87.511719 C 156.089844 87.511719 155.371094 94.078125 155.425781 97.742188 C 156.066406 99.695312 157.714844 101.140625 159.730469 101.515625 C 159.890625 101.878906 160.09375 102.21875 160.339844 102.53125 Z M 160.339844 102.53125 "/>
<path style=" stroke:none;fill-rule:nonzero;fill:rgb(18.431373%,18.039216%,25.490196%);fill-opacity:1;" d="M 137.777344 8.839844 L 68.300781 8.839844 C 67.082031 8.839844 66.089844 9.832031 66.089844 11.054688 L 66.089844 136.742188 C 66.089844 137.96875 67.082031 138.960938 68.300781 138.960938 L 137.777344 138.960938 C 138.996094 138.960938 139.988281 137.96875 139.988281 136.742188 L 139.988281 11.054688 C 139.988281 9.832031 138.996094 8.839844 137.777344 8.839844 Z M 138.640625 127.335938 C 138.640625 130.835938 135.808594 133.671875 132.316406 133.671875 L 73.660156 133.671875 C 70.167969 133.671875 67.335938 130.835938 67.335938 127.335938 L 67.335938 18.445312 C 67.335938 14.945312 70.167969 12.105469 73.660156 12.105469 L 90.503906 12.105469 L 92.34375 15.082031 L 114.070312 15.082031 L 116.398438 12.105469 L 132.300781 12.105469 C 133.984375 12.101562 135.59375 12.769531 136.785156 13.957031 C 137.972656 15.144531 138.640625 16.761719 138.640625 18.445312 Z M 138.640625 127.335938 "/>
<path style=" stroke:none;fill-rule:nonzero;fill:rgb(18.431373%,18.039216%,25.490196%);fill-opacity:1;" d="M 132.328125 12.101562 L 116.421875 12.101562 L 114.09375 15.078125 L 92.363281 15.078125 L 90.511719 12.101562 L 73.671875 12.101562 C 70.175781 12.101562 67.34375 14.941406 67.34375 18.441406 L 67.34375 127.332031 C 67.34375 130.835938 70.175781 133.671875 73.671875 133.671875 L 132.328125 133.671875 C 135.816406 133.664062 138.640625 130.828125 138.640625 127.332031 L 138.640625 18.441406 C 138.640625 14.945312 135.816406 12.109375 132.328125 12.101562 Z M 136.773438 123.558594 C 136.773438 126.890625 134.074219 129.59375 130.746094 129.59375 L 74.851562 129.59375 C 71.523438 129.59375 68.824219 126.894531 68.820312 123.558594 L 68.820312 19.867188 C 68.824219 16.535156 71.523438 13.832031 74.851562 13.832031 L 90.886719 13.832031 L 92.648438 16.304688 L 113.363281 16.304688 L 115.578125 13.832031 L 130.738281 13.832031 C 134.066406 13.832031 136.761719 16.535156 136.765625 19.867188 Z M 136.773438 123.558594 "/>
<use xlink:href="#surface71" mask="url(#mask22)"/>
<use xlink:href="#surface74" mask="url(#mask23)"/>
<path style=" stroke:none;fill-rule:nonzero;fill:rgb(0%,44.313725%,94.901961%);fill-opacity:1;" d="M 134.011719 88.875 L 145.960938 88.875 C 147.292969 88.875 148.371094 89.957031 148.371094 91.292969 L 148.371094 96.617188 C 148.371094 97.949219 147.292969 99.03125 145.960938 99.035156 L 145.046875 99.035156 C 145.242188 99.84375 145.65625 100.582031 146.238281 101.171875 C 144.792969 100.886719 143.476562 100.136719 142.492188 99.035156 L 134.011719 99.035156 C 132.679688 99.035156 131.597656 97.953125 131.597656 96.617188 L 131.597656 91.292969 C 131.597656 89.957031 132.679688 88.875 134.011719 88.875 Z M 134.011719 88.875 "/>
<path style=" stroke:none;fill-rule:nonzero;fill:rgb(100%,100%,100%);fill-opacity:1;" d="M 145.398438 91.929688 L 134.191406 91.929688 L 134.191406 90.9375 L 145.398438 90.9375 Z M 145.398438 91.929688 "/>
<path style=" stroke:none;fill-rule:nonzero;fill:rgb(100%,100%,100%);fill-opacity:1;" d="M 145.324219 96.054688 L 134.117188 96.054688 L 134.117188 95.0625 L 145.324219 95.0625 Z M 145.324219 96.054688 "/>
<path style=" stroke:none;fill-rule:nonzero;fill:rgb(100%,100%,100%);fill-opacity:1;" d="M 145.398438 93.992188 L 139.757812 93.992188 L 139.757812 93 L 145.398438 93 Z M 145.398438 93.992188 "/>
<path style=" stroke:none;fill-rule:nonzero;fill:rgb(100%,100%,100%);fill-opacity:1;" d="M 139.300781 93.992188 L 134.191406 93.992188 L 134.191406 93 L 139.300781 93 Z M 139.300781 93.992188 "/>
<path style=" stroke:none;fill-rule:nonzero;fill:rgb(0%,44.313725%,94.901961%);fill-opacity:1;" d="M 196.890625 64.414062 L 182.757812 64.414062 C 181.183594 64.414062 179.910156 65.691406 179.910156 67.265625 L 179.910156 73.566406 C 179.910156 75.140625 181.183594 76.417969 182.757812 76.417969 L 183.835938 76.417969 C 183.605469 77.375 183.117188 78.25 182.429688 78.949219 C 184.144531 78.613281 185.699219 77.722656 186.863281 76.417969 L 196.890625 76.417969 C 198.464844 76.417969 199.738281 75.140625 199.738281 73.566406 L 199.738281 67.273438 C 199.738281 66.515625 199.441406 65.789062 198.90625 65.253906 C 198.375 64.714844 197.648438 64.414062 196.890625 64.414062 Z M 196.890625 64.414062 "/>
<path style=" stroke:none;fill-rule:nonzero;fill:rgb(100%,100%,100%);fill-opacity:1;" d="M 183.421875 66.855469 L 196.675781 66.855469 L 196.675781 68.03125 L 183.421875 68.03125 Z M 183.421875 66.855469 "/>
<path style=" stroke:none;fill-rule:nonzero;fill:rgb(100%,100%,100%);fill-opacity:1;" d="M 183.511719 71.734375 L 196.769531 71.734375 L 196.769531 72.90625 L 183.511719 72.90625 Z M 183.511719 71.734375 "/>
<path style=" stroke:none;fill-rule:nonzero;fill:rgb(100%,100%,100%);fill-opacity:1;" d="M 183.421875 69.292969 L 190.09375 69.292969 L 190.09375 70.46875 L 183.421875 70.46875 Z M 183.421875 69.292969 "/>
<path style=" stroke:none;fill-rule:nonzero;fill:rgb(100%,100%,100%);fill-opacity:1;" d="M 190.636719 69.292969 L 196.675781 69.292969 L 196.675781 70.46875 L 190.636719 70.46875 Z M 190.636719 69.292969 "/>
<path style=" stroke:none;fill-rule:nonzero;fill:rgb(18.431373%,18.039216%,25.490196%);fill-opacity:1;" d="M 42.644531 36.066406 L 66.339844 36.066406 C 67.609375 36.0625 68.828125 36.566406 69.726562 37.464844 C 70.625 38.363281 71.132812 39.582031 71.132812 40.855469 L 71.132812 51.421875 C 71.132812 54.066406 68.992188 56.210938 66.351562 56.210938 L 64.539062 56.210938 C 65.058594 58.703125 66.902344 60.453125 66.902344 60.453125 C 63.476562 59.851562 60.988281 57.839844 59.476562 56.210938 L 42.664062 56.210938 C 40.023438 56.210938 37.882812 54.066406 37.882812 51.421875 L 37.882812 40.855469 C 37.882812 38.21875 40.011719 36.074219 42.644531 36.066406 Z M 42.644531 36.066406 "/>
<use xlink:href="#surface77" mask="url(#mask24)"/>
<path style=" stroke:none;fill-rule:nonzero;fill:rgb(97.647059%,70.588235%,60%);fill-opacity:1;" d="M 165.578125 63.0625 C 163.097656 62.648438 160.550781 65.523438 159.894531 69.484375 C 159.234375 73.445312 160.710938 76.992188 163.1875 77.410156 C 165.667969 77.824219 168.214844 74.949219 168.875 70.984375 C 169.535156 67.023438 168.058594 63.476562 165.578125 63.0625 Z M 165.578125 63.0625 "/>
<path style=" stroke:none;fill-rule:nonzero;fill:rgb(18.431373%,18.039216%,25.490196%);fill-opacity:1;" d="M 175.769531 83.320312 C 175.390625 84.082031 174.476562 84.945312 172.191406 84.894531 C 171.726562 84.875 171.273438 85.015625 170.898438 85.285156 C 170.566406 85.523438 170.199219 85.699219 169.808594 85.804688 C 168.675781 86.109375 166.566406 86.40625 165.601562 84.855469 C 165.601562 84.855469 164.261719 82.730469 166.503906 79.488281 C 166.984375 78.136719 167.289062 76.726562 167.402344 75.292969 L 167.402344 72.59375 C 167.402344 72.59375 166.25 72.503906 167.019531 70.585938 C 167.414062 69.765625 167.199219 68.78125 166.503906 68.199219 C 166.503906 68.199219 163.894531 65.691406 163.539062 63.433594 C 163.539062 63.433594 161.472656 64.265625 160.273438 67.90625 C 160.273438 67.90625 159.160156 62.902344 165.390625 62.515625 C 165.390625 62.515625 173.148438 62.039062 172.769531 66.359375 C 172.769531 66.359375 175.570312 67.269531 174.714844 70.710938 C 174.535156 71.382812 174.21875 72.007812 173.785156 72.550781 C 173.433594 72.996094 173.105469 73.742188 173.824219 74.519531 C 175.261719 75.980469 175.675781 78.160156 174.878906 80.046875 C 174.878906 80.046875 173.921875 81.722656 176.027344 82.203125 C 176.035156 82.589844 175.945312 82.972656 175.769531 83.320312 Z M 175.769531 83.320312 "/>
<use xlink:href="#surface80" mask="url(#mask25)"/>
<path style=" stroke:none;fill-rule:nonzero;fill:rgb(97.647059%,70.588235%,60%);fill-opacity:1;" d="M 167.972656 72.628906 C 167.441406 72.398438 166.75 72.800781 166.433594 73.53125 C 166.117188 74.261719 166.296875 75.042969 166.832031 75.273438 C 167.363281 75.507812 168.054688 75.101562 168.371094 74.371094 C 168.6875 73.640625 168.507812 72.863281 167.972656 72.628906 Z M 167.972656 72.628906 "/>
<path style=" stroke:none;fill-rule:nonzero;fill:rgb(97.647059%,70.588235%,60%);fill-opacity:1;" d="M 42.402344 65.917969 C 42.023438 61.535156 39.378906 58.183594 36.5 58.433594 C 33.617188 58.683594 31.589844 62.4375 31.96875 66.824219 C 32.347656 71.207031 34.992188 74.558594 37.871094 74.3125 C 40.753906 74.0625 42.78125 70.304688 42.402344 65.917969 Z M 42.402344 65.917969 "/>
<path style=" stroke:none;fill-rule:nonzero;fill:rgb(97.647059%,70.588235%,60%);fill-opacity:1;" d="M 31.875 71.0625 L 32.449219 77.5 L 35.371094 77.5 C 35.371094 77.5 36.472656 77.210938 37.527344 78.277344 L 39.0625 79.527344 C 39.0625 79.527344 39.253906 78.855469 38.484375 76.933594 C 38.167969 76.09375 37.960938 75.21875 37.867188 74.328125 C 37.867188 74.328125 34.804688 74.699219 32.953125 70.632812 C 32.953125 70.617188 32.734375 70.96875 31.875 71.0625 Z M 31.875 71.0625 "/>
<path style=" stroke:none;fill-rule:nonzero;fill:rgb(96.862745%,64.313725%,54.509804%);fill-opacity:1;" d="M 34.496094 72.90625 C 34.496094 72.90625 33.886719 75.851562 38.636719 77.300781 C 38.636719 77.300781 37.925781 75.640625 37.875 74.3125 C 37.867188 74.3125 36.066406 74.558594 34.496094 72.90625 Z M 34.496094 72.90625 "/>
<path style=" stroke:none;fill-rule:nonzero;fill:rgb(96.862745%,64.313725%,54.509804%);fill-opacity:1;" d="M 33.167969 67.992188 C 33.167969 67.992188 32.652344 65.976562 33.683594 65.304688 L 35.699219 64.054688 C 35.699219 64.054688 37.421875 65.199219 38.621094 63.617188 C 39.691406 64.015625 40.886719 63.90625 41.871094 63.320312 C 41.871094 63.320312 40.34375 58.1875 36.488281 58.433594 C 36.488281 58.433594 31.960938 58.511719 31.863281 66.375 L 32.125 67.992188 C 32.460938 68.105469 32.828125 68.105469 33.167969 67.992188 Z M 33.167969 67.992188 "/>
<path style=" stroke:none;fill-rule:nonzero;fill:rgb(18.431373%,18.039216%,25.490196%);fill-opacity:1;" d="M 31.996094 72.445312 C 31.996094 72.445312 23.441406 68.183594 28.234375 63.289062 C 28.234375 63.289062 26.21875 61.65625 28.902344 61.472656 C 28.902344 61.472656 28.234375 58.589844 30.054688 58.6875 C 30.054688 58.6875 29.765625 60.199219 30.339844 60.308594 C 30.339844 60.308594 35.613281 53.789062 37.527344 58.113281 C 37.527344 58.113281 43.085938 57.921875 42.226562 62.722656 C 42.226562 62.722656 40.789062 61.761719 40.414062 62.816406 C 40.414062 62.816406 39.839844 63.75 38.640625 62.851562 C 38.640625 62.851562 37.503906 64.082031 36.570312 63.785156 C 36.324219 63.605469 36.117188 63.371094 35.964844 63.101562 C 35.878906 62.941406 35.679688 62.878906 35.515625 62.957031 C 34.519531 63.417969 31.542969 64.949219 32.359375 66.382812 L 33.1875 68 C 32.863281 68.167969 32.480469 68.167969 32.152344 68 L 31.894531 71.074219 Z M 31.996094 72.445312 "/>
<path style=" stroke:none;fill-rule:nonzero;fill:rgb(97.647059%,70.588235%,60%);fill-opacity:1;" d="M 33.410156 69.527344 C 33.410156 70.375 32.722656 71.0625 31.875 71.0625 C 31.027344 71.0625 30.339844 70.375 30.339844 69.527344 C 30.339844 68.679688 31.027344 67.992188 31.875 67.992188 C 32.722656 67.992188 33.410156 68.679688 33.410156 69.527344 Z M 33.410156 69.527344 "/>
<path style=" stroke:none;fill-rule:nonzero;fill:rgb(97.647059%,70.588235%,60%);fill-opacity:1;" d="M 54.6875 97.179688 C 54.6875 97.179688 55.589844 97.203125 55.664062 96.664062 L 56.230469 93.585938 C 56.230469 93.585938 57.054688 92.839844 56.972656 94.433594 C 56.867188 95.058594 56.808594 95.695312 56.796875 96.332031 C 56.796875 96.332031 56.796875 98.523438 54.300781 98.621094 L 52.425781 98.652344 L 52.425781 97.195312 Z M 54.6875 97.179688 "/>
<path style=" stroke:none;fill-rule:nonzero;fill:rgb(97.647059%,70.588235%,60%);fill-opacity:1;" d="M 54.6875 97.179688 C 54.6875 97.960938 53.246094 97.960938 53.246094 97.960938 C 52.671875 98.152344 52.960938 98.34375 52.960938 98.34375 C 54.589844 98.054688 54.300781 98.632812 54.300781 98.632812 C 54.394531 99.113281 53.152344 99.207031 53.152344 99.207031 C 52.972656 99.179688 52.785156 99.1875 52.609375 99.234375 C 52.539062 99.246094 52.488281 99.3125 52.5 99.382812 C 52.511719 99.457031 52.578125 99.503906 52.648438 99.492188 C 52.953125 99.480469 53.253906 99.496094 53.554688 99.539062 C 53.679688 99.5625 53.769531 99.660156 53.785156 99.785156 C 53.800781 99.90625 53.734375 100.027344 53.621094 100.078125 C 51.808594 100.855469 49.414062 100.855469 49.414062 100.855469 L 41.265625 104.40625 C 35.421875 106.902344 34.84375 106.039062 34.84375 106.039062 C 31.394531 104.886719 27.292969 99.085938 27.292969 99.085938 C 29.226562 97.8125 31.476562 97.09375 33.792969 97.011719 C 34.84375 98.453125 36.761719 98.742188 36.761719 98.742188 C 39.734375 97.683594 48.644531 95.859375 48.644531 95.859375 C 49.480469 95.730469 50.316406 94.996094 50.777344 94.527344 C 50.847656 94.457031 50.949219 94.4375 51.039062 94.480469 C 51.128906 94.519531 51.183594 94.613281 51.175781 94.710938 C 51.132812 95.109375 51.023438 95.496094 50.851562 95.859375 C 50.832031 95.929688 50.84375 96.003906 50.882812 96.066406 C 50.957031 96.175781 51.140625 96.140625 51.339844 96.066406 C 51.640625 95.945312 51.902344 95.753906 52.117188 95.511719 C 52.386719 95.183594 52.71875 94.914062 53.097656 94.722656 C 53.292969 94.636719 53.519531 94.691406 53.652344 94.859375 C 53.769531 95.003906 53.792969 95.199219 53.714844 95.363281 C 53.414062 96 52.566406 96.726562 52.566406 96.726562 C 54.878906 96.125 54.6875 97.179688 54.6875 97.179688 Z M 54.6875 97.179688 "/>
<path style=" stroke:none;fill-rule:nonzero;fill:rgb(96.862745%,64.313725%,54.509804%);fill-opacity:1;" d="M 53.664062 94.847656 L 52.671875 95.753906 C 51.402344 96.773438 50.964844 96.203125 50.882812 96.058594 C 50.957031 96.164062 51.140625 96.132812 51.339844 96.058594 C 51.640625 95.933594 51.902344 95.742188 52.117188 95.503906 C 52.386719 95.171875 52.71875 94.902344 53.097656 94.710938 C 53.296875 94.621094 53.53125 94.675781 53.664062 94.847656 Z M 53.664062 94.847656 "/>
<path style=" stroke:none;fill-rule:nonzero;fill:rgb(96.862745%,64.313725%,54.509804%);fill-opacity:1;" d="M 27.292969 99.066406 C 27.292969 99.066406 32.117188 102.15625 36.929688 98.660156 C 35.695312 98.574219 34.554688 97.96875 33.792969 96.992188 C 33.792969 96.992188 30.972656 96.75 27.292969 99.066406 Z M 27.292969 99.066406 "/>
<path style=" stroke:none;fill-rule:nonzero;fill:rgb(27.058824%,35.294118%,39.215686%);fill-opacity:1;" d="M 99.453125 123.597656 C 99.453125 124.148438 99.007812 124.597656 98.457031 124.601562 C 97.902344 124.601562 97.457031 124.152344 97.457031 123.601562 C 97.453125 123.046875 97.902344 122.597656 98.453125 122.597656 C 99.003906 122.601562 99.449219 123.046875 99.453125 123.597656 Z M 99.453125 123.597656 "/>
<path style=" stroke:none;fill-rule:nonzero;fill:rgb(27.058824%,35.294118%,39.215686%);fill-opacity:1;" d="M 103.242188 123.597656 C 103.242188 124 103 124.367188 102.625 124.523438 C 102.253906 124.679688 101.824219 124.59375 101.539062 124.308594 C 101.25 124.019531 101.167969 123.589844 101.320312 123.214844 C 101.476562 122.839844 101.839844 122.597656 102.246094 122.597656 C 102.792969 122.601562 103.238281 123.046875 103.242188 123.597656 Z M 103.242188 123.597656 "/>
<path style=" stroke:none;fill-rule:nonzero;fill:rgb(27.058824%,35.294118%,39.215686%);fill-opacity:1;" d="M 107.035156 123.597656 C 107.035156 124.148438 106.589844 124.597656 106.035156 124.601562 C 105.484375 124.601562 105.039062 124.152344 105.035156 123.601562 C 105.035156 123.046875 105.484375 122.597656 106.035156 122.597656 C 106.585938 122.601562 107.03125 123.046875 107.035156 123.597656 Z M 107.035156 123.597656 "/>
<path style=" stroke:none;fill-rule:nonzero;fill:rgb(18.431373%,18.039216%,25.490196%);fill-opacity:1;" d="M 118.644531 42.496094 L 84.421875 42.335938 L 84.425781 41.28125 L 118.644531 41.441406 Z M 118.644531 42.496094 "/>
<path style=" stroke:none;fill-rule:nonzero;fill:rgb(18.431373%,18.039216%,25.490196%);fill-opacity:1;" d="M 118.644531 45.964844 L 84.421875 45.800781 L 84.425781 44.746094 L 118.644531 44.90625 Z M 118.644531 45.964844 "/>
<path style=" stroke:none;fill-rule:nonzero;fill:rgb(18.431373%,18.039216%,25.490196%);fill-opacity:1;" d="M 105.097656 49.269531 L 105.101562 48.214844 L 118.644531 48.28125 L 118.636719 49.335938 Z M 105.097656 49.269531 "/>
<path style=" stroke:none;fill-rule:nonzero;fill:rgb(0%,44.313725%,94.901961%);fill-opacity:1;" d="M 126.125 62.78125 L 126.125 73.339844 C 126.125 75.246094 124.582031 76.789062 122.683594 76.792969 L 84.964844 76.792969 C 83.0625 76.792969 81.519531 75.246094 81.519531 73.339844 L 81.519531 64.417969 L 76.820312 59.476562 L 122.664062 59.34375 C 124.566406 59.335938 126.117188 60.871094 126.125 62.773438 Z M 126.125 62.78125 "/>
<path style=" stroke:none;fill-rule:nonzero;fill:rgb(100%,100%,100%);fill-opacity:1;" d="M 87.082031 65.71875 L 121.304688 65.558594 L 121.300781 64.503906 L 87.074219 64.664062 Z M 87.082031 65.71875 "/>
<path style=" stroke:none;fill-rule:nonzero;fill:rgb(100%,100%,100%);fill-opacity:1;" d="M 87.082031 69.183594 L 121.304688 69.023438 L 121.300781 67.976562 L 87.074219 68.128906 Z M 87.082031 69.183594 "/>
<path style=" stroke:none;fill-rule:nonzero;fill:rgb(100%,100%,100%);fill-opacity:1;" d="M 87.070312 71.511719 L 100.609375 71.445312 L 100.613281 72.5 L 87.074219 72.566406 Z M 87.070312 71.511719 "/>
<path style=" stroke:none;fill-rule:nonzero;fill:rgb(0%,44.313725%,94.901961%);fill-opacity:1;" d="M 105.59375 22.414062 C 106.273438 22.117188 106.707031 21.441406 106.695312 20.699219 C 106.726562 19.75 105.996094 18.953125 105.050781 18.902344 C 104.105469 18.855469 103.292969 19.574219 103.230469 20.519531 C 103.230469 20.578125 103.230469 20.636719 103.230469 20.699219 C 103.210938 21.445312 103.648438 22.128906 104.332031 22.425781 C 101.652344 22.832031 101.78125 25.738281 101.78125 25.738281 L 108.09375 25.765625 C 108.09375 25.765625 108.242188 22.804688 105.59375 22.414062 Z M 105.59375 22.414062 "/>
<use xlink:href="#surface83" mask="url(#mask26)"/>
<path style=" stroke:none;fill-rule:nonzero;fill:rgb(0%,44.313725%,94.901961%);fill-opacity:1;" d="M 102.128906 22.414062 C 102.804688 22.113281 103.238281 21.4375 103.234375 20.699219 C 103.285156 19.75 102.570312 18.933594 101.625 18.863281 C 100.679688 18.792969 99.851562 19.492188 99.761719 20.4375 C 99.757812 20.527344 99.757812 20.613281 99.761719 20.699219 C 99.746094 21.449219 100.1875 22.132812 100.878906 22.425781 C 98.207031 22.832031 98.328125 25.738281 98.328125 25.738281 L 104.640625 25.765625 C 104.640625 25.765625 104.777344 22.804688 102.128906 22.414062 Z M 102.128906 22.414062 "/>
<path style=" stroke:none;fill-rule:nonzero;fill:rgb(0%,44.313725%,94.901961%);fill-opacity:1;" d="M 94.339844 28.992188 L 94.339844 26.882812 L 111.308594 26.882812 L 111.308594 28.992188 Z M 94.339844 28.992188 "/>
<use xlink:href="#surface86" mask="url(#mask27)"/>
<path style=" stroke:none;fill-rule:nonzero;fill:rgb(18.431373%,18.039216%,25.490196%);fill-opacity:1;" d="M 120.179688 89.578125 L 85.957031 89.421875 L 85.957031 88.367188 L 120.183594 88.527344 Z M 120.179688 89.578125 "/>
<path style=" stroke:none;fill-rule:nonzero;fill:rgb(18.431373%,18.039216%,25.490196%);fill-opacity:1;" d="M 106.289062 92.90625 L 106.296875 91.851562 L 120.183594 91.917969 L 120.175781 92.972656 Z M 106.289062 92.90625 "/>
<path style=" stroke:none;fill-rule:nonzero;fill:rgb(0%,44.313725%,94.901961%);fill-opacity:1;" d="M 124.933594 105.613281 L 124.933594 112.835938 C 124.933594 113.847656 124.113281 114.667969 123.101562 114.667969 L 82.769531 114.667969 C 81.769531 114.65625 80.960938 113.839844 80.960938 112.835938 L 80.960938 108.886719 L 76.324219 103.917969 L 123.089844 103.773438 C 123.578125 103.769531 124.046875 103.960938 124.394531 104.304688 C 124.742188 104.652344 124.933594 105.121094 124.933594 105.613281 Z M 124.933594 105.613281 "/>
<path style=" stroke:none;fill-rule:nonzero;fill:rgb(100%,100%,100%);fill-opacity:1;" d="M 85.136719 108.390625 L 119.359375 108.234375 L 119.355469 107.179688 L 85.128906 107.339844 Z M 85.136719 108.390625 "/>
<path style=" stroke:none;fill-rule:nonzero;fill:rgb(100%,100%,100%);fill-opacity:1;" d="M 85.136719 111.785156 L 119.359375 111.625 L 119.355469 110.574219 L 85.128906 110.730469 Z M 85.136719 111.785156 "/>
<path style=" stroke:none;fill-rule:nonzero;fill:rgb(18.431373%,18.039216%,25.490196%);fill-opacity:1;" d="M 120.878906 53.773438 L 82.992188 53.773438 C 81.035156 53.769531 79.449219 52.183594 79.445312 50.222656 L 79.445312 39.503906 C 79.449219 37.542969 81.035156 35.953125 82.992188 35.953125 L 129.207031 35.953125 L 124.414062 41.238281 L 124.414062 50.222656 C 124.414062 52.179688 122.832031 53.765625 120.878906 53.773438 Z M 82.992188 36.152344 C 81.132812 36.152344 79.628906 37.660156 79.628906 39.519531 L 79.628906 50.238281 C 79.628906 52.097656 81.132812 53.605469 82.992188 53.605469 L 120.878906 53.605469 C 122.738281 53.605469 124.242188 52.097656 124.242188 50.238281 L 124.242188 41.164062 L 128.78125 36.144531 Z M 82.992188 36.152344 "/>
<path style=" stroke:none;fill-rule:nonzero;fill:rgb(18.431373%,18.039216%,25.490196%);fill-opacity:1;" d="M 122.671875 96.125 L 82.234375 96.082031 C 81.132812 96.078125 80.238281 95.179688 80.238281 94.074219 L 80.238281 86.816406 C 80.234375 86.285156 80.445312 85.773438 80.820312 85.394531 C 81.199219 85.019531 81.707031 84.808594 82.238281 84.808594 L 129.222656 84.902344 L 124.414062 90.113281 L 124.414062 94.371094 C 124.414062 95.339844 123.632812 96.121094 122.667969 96.125 Z M 82.234375 85 C 81.234375 85 80.425781 85.8125 80.425781 86.816406 L 80.425781 94.070312 C 80.425781 95.074219 81.234375 95.886719 82.234375 95.886719 L 122.671875 95.929688 C 123.53125 95.929688 124.222656 95.234375 124.222656 94.375 L 124.222656 90.035156 L 124.25 90.007812 L 128.78125 85.085938 L 82.238281 85 Z M 82.234375 85 "/>
<path style=" stroke:none;fill-rule:nonzero;fill:rgb(0%,44.313725%,94.901961%);fill-opacity:1;" d="M 170.199219 21.164062 L 142.546875 21.164062 C 139.464844 21.160156 136.964844 23.664062 136.964844 26.753906 L 136.964844 39.082031 C 136.96875 42.171875 139.464844 44.671875 142.546875 44.671875 L 144.660156 44.671875 C 144.050781 47.582031 141.90625 49.621094 141.90625 49.621094 C 145.90625 48.917969 148.808594 46.574219 150.574219 44.671875 L 170.199219 44.671875 C 173.28125 44.671875 175.777344 42.167969 175.777344 39.082031 L 175.777344 26.753906 C 175.777344 23.664062 173.28125 21.164062 170.199219 21.164062 Z M 170.199219 21.164062 "/>
<path style=" stroke:none;fill-rule:nonzero;fill:rgb(100%,100%,100%);fill-opacity:1;" d="M 143.847656 25.933594 L 169.785156 25.933594 L 169.785156 28.230469 L 143.847656 28.230469 Z M 143.847656 25.933594 "/>
<path style=" stroke:none;fill-rule:nonzero;fill:rgb(100%,100%,100%);fill-opacity:1;" d="M 144.023438 35.480469 L 169.960938 35.480469 L 169.960938 37.777344 L 144.023438 37.777344 Z M 144.023438 35.480469 "/>
<path style=" stroke:none;fill-rule:nonzero;fill:rgb(100%,100%,100%);fill-opacity:1;" d="M 143.847656 30.707031 L 156.90625 30.707031 L 156.90625 33.003906 L 143.847656 33.003906 Z M 143.847656 30.707031 "/>
<path style=" stroke:none;fill-rule:nonzero;fill:rgb(100%,100%,100%);fill-opacity:1;" d="M 157.964844 30.707031 L 169.785156 30.707031 L 169.785156 33.003906 L 157.964844 33.003906 Z M 157.964844 30.707031 "/>
<path style=" stroke:none;fill-rule:nonzero;fill:rgb(18.431373%,18.039216%,25.490196%);fill-opacity:1;" d="M 78.011719 93.4375 L 62.988281 93.4375 C 61.3125 93.4375 59.957031 94.800781 59.957031 96.476562 L 59.957031 103.171875 C 59.957031 104.847656 61.3125 106.207031 62.988281 106.210938 L 64.148438 106.210938 C 63.898438 107.226562 63.382812 108.152344 62.648438 108.898438 C 64.824219 108.519531 66.398438 107.246094 67.359375 106.210938 L 78.011719 106.210938 C 79.683594 106.207031 81.039062 104.847656 81.039062 103.171875 L 81.039062 96.476562 C 81.042969 94.800781 79.6875 93.4375 78.011719 93.4375 Z M 78.011719 93.4375 "/>
<use xlink:href="#surface89" mask="url(#mask28)"/>
<path style=" stroke:none;fill-rule:nonzero;fill:rgb(100%,100%,100%);fill-opacity:1;" d="M 63.695312 96.03125 L 77.785156 96.03125 L 77.785156 97.28125 L 63.695312 97.28125 Z M 63.695312 96.03125 "/>
<path style=" stroke:none;fill-rule:nonzero;fill:rgb(100%,100%,100%);fill-opacity:1;" d="M 63.789062 101.214844 L 77.878906 101.214844 L 77.878906 102.464844 L 63.789062 102.464844 Z M 63.789062 101.214844 "/>
<path style=" stroke:none;fill-rule:nonzero;fill:rgb(100%,100%,100%);fill-opacity:1;" d="M 63.695312 98.625 L 70.789062 98.625 L 70.789062 99.875 L 63.695312 99.875 Z M 63.695312 98.625 "/>
<path style=" stroke:none;fill-rule:nonzero;fill:rgb(100%,100%,100%);fill-opacity:1;" d="M 71.363281 98.625 L 77.785156 98.625 L 77.785156 99.875 L 71.363281 99.875 Z M 71.363281 98.625 "/>
<path style=" stroke:none;fill-rule:nonzero;fill:rgb(100%,100%,100%);fill-opacity:1;" d="M 65.226562 42.125 L 43.003906 42.125 L 43.003906 40.15625 L 65.226562 40.15625 Z M 65.226562 42.125 "/>
<path style=" stroke:none;fill-rule:nonzero;fill:rgb(100%,100%,100%);fill-opacity:1;" d="M 65.078125 50.304688 L 42.855469 50.304688 L 42.855469 48.335938 L 65.078125 48.335938 Z M 65.078125 50.304688 "/>
<path style=" stroke:none;fill-rule:nonzero;fill:rgb(100%,100%,100%);fill-opacity:1;" d="M 65.226562 46.214844 L 54.039062 46.214844 L 54.039062 44.246094 L 65.226562 44.246094 Z M 65.226562 46.214844 "/>
<path style=" stroke:none;fill-rule:nonzero;fill:rgb(100%,100%,100%);fill-opacity:1;" d="M 53.132812 46.214844 L 43.003906 46.214844 L 43.003906 44.246094 L 53.132812 44.246094 Z M 53.132812 46.214844 "/>
<path style=" stroke:none;fill-rule:nonzero;fill:rgb(0%,44.313725%,94.901961%);fill-opacity:1;" d="M 152.695312 13.121094 C 152.695312 14.628906 151.472656 15.851562 149.96875 15.851562 C 148.464844 15.851562 147.242188 14.628906 147.242188 13.121094 C 147.242188 11.613281 148.464844 10.390625 149.96875 10.390625 C 151.472656 10.390625 152.695312 11.613281 152.695312 13.121094 Z M 152.695312 13.121094 "/>
<use xlink:href="#surface92" mask="url(#mask29)"/>
<path style=" stroke:none;fill-rule:nonzero;fill:rgb(18.431373%,18.039216%,25.490196%);fill-opacity:1;" d="M 149.066406 12.339844 C 149.167969 12.339844 149.261719 12.445312 149.269531 12.597656 C 149.28125 12.746094 149.203125 12.875 149.097656 12.878906 C 148.992188 12.886719 148.902344 12.769531 148.894531 12.621094 C 148.882812 12.46875 148.960938 12.34375 149.066406 12.339844 Z M 149.066406 12.339844 "/>
<path style=" stroke:none;fill-rule:nonzero;fill:rgb(18.431373%,18.039216%,25.490196%);fill-opacity:1;" d="M 149.316406 11.660156 C 149.316406 11.699219 149.085938 11.691406 148.855469 11.777344 C 148.621094 11.867188 148.433594 12.011719 148.40625 11.984375 C 148.378906 11.953125 148.519531 11.75 148.808594 11.644531 C 149.09375 11.542969 149.328125 11.613281 149.316406 11.660156 Z M 149.316406 11.660156 "/>
<path style=" stroke:none;fill-rule:nonzero;fill:rgb(18.431373%,18.039216%,25.490196%);fill-opacity:1;" d="M 151.292969 12.761719 C 151.261719 12.785156 151.117188 12.628906 150.882812 12.605469 C 150.644531 12.582031 150.46875 12.699219 150.449219 12.671875 C 150.425781 12.644531 150.464844 12.605469 150.542969 12.550781 C 150.648438 12.484375 150.773438 12.457031 150.898438 12.46875 C 151.023438 12.480469 151.136719 12.539062 151.226562 12.625 C 151.289062 12.699219 151.316406 12.753906 151.292969 12.761719 Z M 151.292969 12.761719 "/>
<path style=" stroke:none;fill-rule:nonzero;fill:rgb(18.431373%,18.039216%,25.490196%);fill-opacity:1;" d="M 151.527344 12.308594 C 151.507812 12.339844 151.296875 12.226562 150.992188 12.214844 C 150.683594 12.207031 150.472656 12.300781 150.449219 12.261719 C 150.589844 12.117188 150.792969 12.046875 150.996094 12.078125 C 151.335938 12.09375 151.550781 12.28125 151.527344 12.308594 Z M 151.527344 12.308594 "/>
<path style=" stroke:none;fill-rule:nonzero;fill:rgb(18.431373%,18.039216%,25.490196%);fill-opacity:1;" d="M 151.335938 13.066406 C 151.335938 13.253906 151.273438 13.433594 151.164062 13.585938 C 150.773438 14.238281 149.925781 14.453125 149.269531 14.0625 C 149.097656 13.960938 148.953125 13.820312 148.839844 13.65625 C 148.714844 13.511719 148.644531 13.328125 148.636719 13.140625 C 148.714844 13.300781 148.808594 13.457031 148.917969 13.605469 C 149.371094 14.1875 150.210938 14.292969 150.792969 13.835938 C 150.902344 13.75 150.996094 13.652344 151.074219 13.539062 C 151.171875 13.386719 151.257812 13.230469 151.335938 13.066406 Z M 151.335938 13.066406 "/>
<path style=" stroke:none;fill-rule:nonzero;fill:rgb(0%,44.313725%,94.901961%);fill-opacity:1;" d="M 59.433594 77.644531 C 59.367188 79.765625 57.601562 81.429688 55.484375 81.363281 C 53.367188 81.300781 51.707031 79.53125 51.769531 77.410156 C 51.832031 75.289062 53.601562 73.625 55.714844 73.6875 C 56.734375 73.714844 57.695312 74.148438 58.394531 74.890625 C 59.089844 75.636719 59.464844 76.625 59.433594 77.644531 Z M 59.433594 77.644531 "/>
<use xlink:href="#surface95" mask="url(#mask30)"/>
<path style=" stroke:none;fill-rule:nonzero;fill:rgb(0%,44.313725%,94.901961%);fill-opacity:1;" d="M 54.835938 76.46875 C 54.695312 76.285156 54.433594 76.25 54.246094 76.382812 C 54.070312 76.503906 53.953125 76.691406 53.929688 76.902344 C 53.910156 76.6875 53.796875 76.492188 53.621094 76.363281 C 53.441406 76.21875 53.179688 76.238281 53.027344 76.414062 C 52.945312 76.53125 52.910156 76.675781 52.925781 76.816406 C 52.933594 76.960938 52.980469 77.097656 53.058594 77.214844 C 53.296875 77.507812 53.585938 77.757812 53.914062 77.949219 C 54.234375 77.777344 54.523438 77.542969 54.753906 77.261719 C 54.84375 77.148438 54.894531 77.015625 54.910156 76.875 C 54.9375 76.734375 54.910156 76.589844 54.835938 76.46875 Z M 54.835938 76.46875 "/>
<path style=" stroke:none;fill-rule:nonzero;fill:rgb(0%,44.313725%,94.901961%);fill-opacity:1;" d="M 58.222656 76.566406 C 58.078125 76.382812 57.816406 76.34375 57.628906 76.480469 C 57.453125 76.601562 57.339844 76.789062 57.3125 77 C 57.292969 76.78125 57.183594 76.585938 57.007812 76.457031 C 56.824219 76.3125 56.5625 76.335938 56.410156 76.507812 C 56.328125 76.625 56.292969 76.769531 56.308594 76.910156 C 56.316406 77.054688 56.363281 77.191406 56.445312 77.308594 C 56.679688 77.605469 56.96875 77.855469 57.296875 78.042969 C 57.617188 77.871094 57.902344 77.640625 58.140625 77.359375 C 58.226562 77.246094 58.277344 77.109375 58.292969 76.96875 C 58.320312 76.828125 58.292969 76.6875 58.222656 76.566406 Z M 58.222656 76.566406 "/>
<path style=" stroke:none;fill-rule:nonzero;fill:rgb(100%,100%,100%);fill-opacity:1;" d="M 56.847656 78.472656 C 56.765625 79.128906 56.191406 79.609375 55.535156 79.582031 C 54.875 79.550781 54.347656 79.019531 54.328125 78.355469 Z M 56.847656 78.472656 "/>
</g>
</svg>
